<svg xmlns="http://www.w3.org/2000/svg" width="512" height="512" style="shape-rendering:geometricPrecision;text-rendering:geometricPrecision;image-rendering:optimizeQuality;fill-rule:evenodd;clip-rule:evenodd"><path fill="#02a8fc" d="M35.5-.5h106c-11.645 4.663-21.311 11.996-29 22-2.469-6.404-7.136-8.904-14-7.5-6.242 3.816-7.575 8.983-4 15.5 3.325 3.797 7.325 4.797 12 3 .438-.065.772.101 1 .5a42.674 42.674 0 0 0-4 14.5h-68v25h-1a1351.71 1351.71 0 0 1 1-73Z" style="opacity:1"/><path fill="#33bafd" d="M141.5-.5h334a589.48 589.48 0 0 1 1 48c-115.501-.333-230.835 0-346 1h-27v-1a42.674 42.674 0 0 1 4-14.5c-.228-.399-.562-.565-1-.5 4.329-2.32 6.329-5.987 6-11 7.689-10.004 17.355-17.337 29-22Z" style="opacity:1"/><path fill="#62d0fc" d="M67.5 13.5c13.227-.035 16.894 5.798 11 17.5-10.662 4.676-16.163 1.176-16.5-10.5 1.371-2.766 3.204-5.1 5.5-7ZM112.5 21.5c.329 5.013-1.671 8.68-6 11-4.675 1.797-8.675.797-12-3-3.575-6.517-2.242-11.684 4-15.5 6.864-1.404 11.531 1.096 14 7.5Z" style="opacity:1"/><path fill="#63d1fc" d="M128.5 13.5c12.812-.36 16.646 5.308 11.5 17-5.981 4.447-11.314 3.78-16-2-1.25-2.577-1.584-5.243-1-8a57.112 57.112 0 0 1 5.5-7Z" style="opacity:1"/><path fill="#64d1fc" d="M169.5 16.5c63.334-.167 126.668 0 190 .5 3.712 2.513 4.878 6.013 3.5 10.5a11.529 11.529 0 0 1-4.5 3.5c-63 .667-126 .667-189 0-5.326-5.001-5.326-9.834 0-14.5ZM390.5 16.5c19.669-.167 39.336 0 59 .5 6.572 4.478 6.572 9.145 0 14a841.208 841.208 0 0 1-58 0c-6.208-4.42-6.542-9.253-1-14.5Z" style="opacity:1"/><path fill="#78cbf8" d="M130.5 48.5c115.165-1 230.499-1.333 346-1v3a7328.58 7328.58 0 0 0-171-2c-56.834 0-113.501.333-170 1a20.676 20.676 0 0 0-5-1Z" style="opacity:1"/><path fill="#0153aa" d="M103.5 47.5v25h-68v-25h68Z" style="opacity:1"/><path fill="#0165c6" d="M103.5 48.5h27c1.716.129 3.383.462 5 1 10.615 3.956 16.281 11.622 17 23h-49v-24Z" style="opacity:1"/><path fill="#cde2f4" d="M135.5 49.5c56.499-.667 113.166-1 170-1 57.21.004 114.21.67 171 2v22h-324c-.719-11.378-6.385-19.044-17-23Z" style="opacity:1"/><path fill="#cde2f3" d="M34.5 72.5h118a600.847 600.847 0 0 1-49 1v29c-27.797 13.61-36.963 35.277-27.5 65 6.133 11.969 15.3 20.636 27.5 26-.318 4.532.015 8.866 1 13-25.078 10.814-35.578 29.814-31.5 57 4.895 16.163 15.062 27.497 30.5 34v14c-24.118 10.977-34.285 29.643-30.5 56 4.416 16.578 14.583 27.912 30.5 34v14c-9.089 3.592-16.589 9.259-22.5 17-1.009 1.525-1.509 3.192-1.5 5-18.358-18.37-33.025-39.37-44-63 .333-72.169 0-144.169-1-216v-86Z" style="opacity:1"/><path fill="#eaf0f6" d="M152.5 72.5h324v86a11662.585 11662.585 0 0 0-1 216c-19.055 39.392-46.722 71.392-83 96 3.293-23.242-6.374-38.075-29-44.5-70.333-.5-140.666-.667-211-.5-14.505-12.016-30.839-15.349-49-10v-14c18.16 5.585 34.493 2.251 49-10h76c45.335.167 90.668 0 136-.5 23.75-7.435 32.584-23.268 26.5-47.5-4.323-10.323-11.823-17.156-22.5-20.5a3349.953 3349.953 0 0 0-140-1.5h-76c-14.565-12.058-30.898-15.392-49-10v-14c18.175 5.35 34.509 2.017 49-10 70.001.167 140.001 0 210-.5 22.096-5.093 32.263-18.926 30.5-41.5-3.24-12.906-11.073-21.74-23.5-26.5a3380.34 3380.34 0 0 0-141-1.5h-76c-14.069-11.85-30.069-15.516-48-11-.985-4.134-1.318-8.468-1-13 19.023 5.172 35.689 1.172 50-12 24.828.998 49.828 1.331 75 1 45.335.167 90.668 0 136-.5 20.129-5.403 29.629-18.57 28.5-39.5-3.425-15.091-12.591-24.591-27.5-28.5-71-.544-142-1.044-213-1.5-14.608-11.399-30.942-14.732-49-10v-29c16.509.33 32.842-.004 49-1Z" style="opacity:.999"/><path fill="#d2f3c9" d="M152.5 112.5c0 .667.333 1 1 1 18.61 22.705 18.61 45.371 0 68-14.311 13.172-30.977 17.172-50 12-12.2-5.364-21.367-14.031-27.5-26-9.463-29.723-.297-51.39 27.5-65 18.058-4.732 34.392-1.399 49 10Z" style="opacity:1"/><path fill="#71c994" d="M147.5 176.5c-.011-1.517-.677-2.684-2-3.5a100.27 100.27 0 0 1-17.5-9.5 79.108 79.108 0 0 1 3.5-12c1.637-1.78 2.637-3.947 3-6.5 1.716-15.281-4.951-22.281-20-21a29.517 29.517 0 0 0-4.5 2.5 109.338 109.338 0 0 1-4.5 10 71.59 71.59 0 0 0-.5 12c2.88 4.743 4.88 9.743 6 15a63.56 63.56 0 0 1-17.5 9.5 18.489 18.489 0 0 0-2 3.5c-11.333-11.523-14.833-25.19-10.5-41 10.04-22.77 27.206-31.27 51.5-25.5 20.628 8.658 29.462 24.158 26.5 46.5-1.592 8.06-5.425 14.727-11.5 20Z" style="opacity:1"/><path fill="#b0d4e9" d="M153.5 113.5c25.002-.167 50.002 0 75 .5-8.02 8.752-7.687 17.252 1 25.5-8.911 1.047-11.411 5.714-7.5 14 1.734 1.951 3.901 2.951 6.5 3-8 8.667-8 17.333 0 26-25.172.331-50.172-.002-75-1 18.61-22.629 18.61-45.295 0-68Z" style="opacity:1"/><path fill="#cde2f3" d="M152.5 112.5c71 .456 142 .956 213 1.5 14.909 3.909 24.075 13.409 27.5 28.5 1.129 20.93-8.371 34.097-28.5 39.5-45.332.5-90.665.667-136 .5-8-8.667-8-17.333 0-26 8.34.166 16.673 0 25-.5 7.497-4.957 7.83-10.29 1-16-8.327-.5-16.66-.666-25-.5-8.687-8.248-9.02-16.748-1-25.5-24.998-.5-49.998-.667-75-.5-.667 0-1-.333-1-1Z" style="opacity:1"/><path fill="#79f3aa" d="M131.5 151.5c-9.333 1.927-16.833-1.073-22.5-9-.941-2.227-2.108-4.227-3.5-6 1.63-3.175 3.13-6.509 4.5-10a29.517 29.517 0 0 1 4.5-2.5c15.049-1.281 21.716 5.719 20 21-.363 2.553-1.363 4.72-3 6.5Z" style="opacity:1"/><path fill="#6edb9a" d="M105.5 136.5c1.392 1.773 2.559 3.773 3.5 6 5.667 7.927 13.167 10.927 22.5 9a79.108 79.108 0 0 0-3.5 12 100.27 100.27 0 0 0 17.5 9.5c1.323.816 1.989 1.983 2 3.5-15.209 13.715-31.876 15.549-50 5.5a32.845 32.845 0 0 1-6-5.5 18.489 18.489 0 0 1 2-3.5 63.56 63.56 0 0 0 17.5-9.5c-1.12-5.257-3.12-10.257-6-15a71.59 71.59 0 0 1 .5-12Z" style="opacity:1"/><path fill="#96c8e2" d="M188.5 139.5c5.79-.404 11.456.096 17 1.5 3.303 3.795 3.803 7.962 1.5 12.5-1.171 1.393-2.671 2.227-4.5 2.5-5.449.896-10.782.563-16-1-4.417-5.913-3.75-11.079 2-15.5ZM229.5 139.5c8.34-.166 16.673 0 25 .5 6.83 5.71 6.497 11.043-1 16-8.327.5-16.66.666-25 .5-2.599-.049-4.766-1.049-6.5-3-3.911-8.286-1.411-12.953 7.5-14Z" style="opacity:1"/><path fill="#b0d4ea" d="M275.5 139.5c9.672-.166 19.339 0 29 .5 4.569 2.541 6.069 6.375 4.5 11.5-.833 2.167-2.333 3.667-4.5 4.5-9.667.667-19.333.667-29 0-6.609-5.546-6.609-11.046 0-16.5ZM325.5 139.5c9.672-.166 19.339 0 29 .5 4.724 2.435 6.224 6.269 4.5 11.5-.833 2.167-2.333 3.667-4.5 4.5-9.667.667-19.333.667-29 0-6.644-5.625-6.644-11.125 0-16.5ZM418.5 139.5c6.452-.416 12.785.084 19 1.5 2.928 3.257 3.762 7.091 2.5 11.5a11.532 11.532 0 0 1-4.5 3.5 72.464 72.464 0 0 1-17 0c-6.657-5.673-6.657-11.173 0-16.5Z" style="opacity:1"/><path fill="#01a8fd" d="M34.5 158.5c1 71.831 1.333 143.831 1 216-20.532-40.842-28.7-84.175-24.5-130 2.848-30.063 10.682-58.73 23.5-86Z" style="opacity:.982"/><path fill="#00a8fd" d="M476.5 158.5c24.96 53.599 30.794 109.266 17.5 167-4.126 17.227-10.293 33.56-18.5 49-.333-72.169.001-144.169 1-216Z" style="opacity:.98"/><path fill="#94e5fe" d="M152.5 217.5c19.579 22.657 19.913 45.657 1 69-.667 0-1 .333-1 1-14.491 12.017-30.825 15.35-49 10-15.438-6.503-25.605-17.837-30.5-34-4.078-27.186 6.422-46.186 31.5-57 17.931-4.516 33.931-.85 48 11Z" style="opacity:1"/><path fill="#34bafd" d="M155.5 269.5c-11.745 3.621-20.078-.046-25-11a5.727 5.727 0 0 0 1-3c1.741-1.513 2.741-3.513 3-6 2.164-14.992-4.169-22.158-19-21.5-4.556 1.722-7.556 4.889-9 9.5-.838.342-1.172 1.008-1 2-9.417-.75-14.417-5.75-15-15 15.873-13.871 33.206-15.704 52-5.5 17.094 13.542 21.427 30.375 13 50.5Z" style="opacity:1"/><path fill="#afd4ea" d="M152.5 217.5h76c-3.196 3.56-5.196 7.727-6 12.5 1.054 4.939 3.054 9.439 6 13.5-7.079 1.474-9.579 5.808-7.5 13l3.5 3.5c9.327.5 18.661.666 28 .5a284.057 284.057 0 0 1-24 1.5c-7.932 7.926-7.932 15.926 0 24-24.998.5-49.998.667-75 .5 18.913-23.343 18.579-46.343-1-69Z" style="opacity:1"/><path fill="#cee2f3" d="M228.5 217.5c47.047-.48 94.047.02 141 1.5 12.427 4.76 20.26 13.594 23.5 26.5 1.763 22.574-8.404 36.407-30.5 41.5-69.999.5-139.999.667-210 .5 0-.667.333-1 1-1 25.002.167 50.002 0 75-.5-7.932-8.074-7.932-16.074 0-24a284.057 284.057 0 0 0 24-1.5c3.175-.34 5.341-2.007 6.5-5 1.202-4.293.035-7.793-3.5-10.5a133.23 133.23 0 0 0-27-1.5c-2.946-4.061-4.946-8.561-6-13.5.804-4.773 2.804-8.94 6-12.5Z" style="opacity:1"/><path fill="#03a8fd" d="M90.5 224.5c.583 9.25 5.583 14.25 15 15a40.927 40.927 0 0 1-1 10.5 282.006 282.006 0 0 1 6.5 14.5c-.149 3.516-1.983 6.016-5.5 7.5-5.636 1.463-10.303 4.297-14 8.5-12.125-12.182-15.292-26.515-9.5-43 1.863-5.083 4.696-9.416 8.5-13Z" style="opacity:1"/><path fill="#92e5fe" d="M131.5 255.5c-14.13 2.098-22.463-3.902-25-18 1.444-4.611 4.444-7.778 9-9.5 14.831-.658 21.164 6.508 19 21.5-.259 2.487-1.259 4.487-3 6Z" style="opacity:1"/><path fill="#64d1fc" d="M106.5 237.5c2.537 14.098 10.87 20.098 25 18a5.727 5.727 0 0 1-1 3 23.884 23.884 0 0 0-2.5 9c4.494 3.952 9.661 6.785 15.5 8.5a32.864 32.864 0 0 1 5 4.5c-13.397 12.559-28.731 15.393-46 8.5-4.459-1.886-8.125-4.719-11-8.5 3.697-4.203 8.364-7.037 14-8.5 3.517-1.484 5.351-3.984 5.5-7.5a282.006 282.006 0 0 0-6.5-14.5 40.927 40.927 0 0 0 1-10.5c-.172-.992.162-1.658 1-2Z" style="opacity:1"/><path fill="#96c8e2" d="M188.5 243.5c5.858-.513 11.525.154 17 2 3.345 3.585 3.845 7.585 1.5 12a6.978 6.978 0 0 1-3.5 2.5c-5.781.903-11.447.57-17-1-3.303-3.795-3.803-7.962-1.5-12.5 1.518-.663 2.685-1.663 3.5-3ZM228.5 243.5a133.23 133.23 0 0 1 27 1.5c3.535 2.707 4.702 6.207 3.5 10.5-1.159 2.993-3.325 4.66-6.5 5-9.339.166-18.673 0-28-.5l-3.5-3.5c-2.079-7.192.421-11.526 7.5-13Z" style="opacity:1"/><path fill="#b0d4ea" d="M275.5 243.5c9.339-.166 18.673 0 28 .5 5.404 2.083 7.237 5.916 5.5 11.5-.833 2.167-2.333 3.667-4.5 4.5-9.667.667-19.333.667-29 0-4.569-2.541-6.069-6.375-4.5-11.5a32.864 32.864 0 0 1 4.5-5ZM326.5 243.5c10.08-.423 20.08.077 30 1.5 4.287 5.357 3.953 10.357-1 15-10 .667-20 .667-30 0-6.856-5.9-6.523-11.4 1-16.5ZM419.5 243.5a63.131 63.131 0 0 1 18 1.5c4.287 5.357 3.953 10.357-1 15-6.776.92-13.443.586-20-1-4.747-6.363-3.747-11.53 3-15.5Z" style="opacity:1"/><path fill="#06a9fd" d="M130.5 258.5c4.922 10.954 13.255 14.621 25 11a31.867 31.867 0 0 1-7 11 32.864 32.864 0 0 0-5-4.5c-5.839-1.715-11.006-4.548-15.5-8.5a23.884 23.884 0 0 1 2.5-9Z" style="opacity:1"/><path fill="#fdefb3" d="M152.5 321.5c19.953 23.298 19.953 46.631 0 70-14.507 12.251-30.84 15.585-49 10-15.917-6.088-26.084-17.422-30.5-34-3.785-26.357 6.382-45.023 30.5-56 18.102-5.392 34.435-2.058 49 10Z" style="opacity:1"/><path fill="#fec534" d="M155.5 373.5c-11.898 4.297-20.065.63-24.5-11a12.804 12.804 0 0 1-3 6c-.667 1.333-.667 2.667 0 4a126.309 126.309 0 0 1 20.5 12c-12.572 12.217-27.239 15.383-44 9.5-5.536-1.744-9.87-4.911-13-9.5 4.025-4.352 9.026-7.185 15-8.5a12.14 12.14 0 0 1 4.5-3.5c.667-1.333.667-2.667 0-4a7453.541 7453.541 0 0 1-6-12 88.941 88.941 0 0 1 .5-11 139.534 139.534 0 0 0 9 11.5c5.238 3.266 10.905 4.266 17 3 1.667-1.823 2.667-3.99 3-6.5 1.599-17.574-6.068-24.074-23-19.5a45.733 45.733 0 0 0-6 10.5c-9.367-1.359-14.033-6.693-14-16 12.925-12.684 27.925-15.517 45-8.5 21.565 12.534 27.899 30.367 19 53.5Z" style="opacity:1"/><path fill="#b0d4e9" d="M152.5 321.5h76c-7.935 8.468-7.935 16.968 0 25.5 8.177.171 16.177.671 24 1.5-9.339-.166-18.673 0-28 .5-3.777 2.911-4.944 6.744-3.5 11.5.833 1.5 2 2.667 3.5 3.5 9.327.5 18.661.666 28 .5a284.057 284.057 0 0 1-24 1.5c-4.791 3.742-6.624 8.576-5.5 14.5 1.333 3.999 3.166 7.666 5.5 11h-76c19.953-23.369 19.953-46.702 0-70Z" style="opacity:1"/><path fill="#cee3f3" d="M228.5 321.5c46.705-.475 93.372.025 140 1.5 10.677 3.344 18.177 10.177 22.5 20.5 6.084 24.232-2.75 40.065-26.5 47.5-45.332.5-90.665.667-136 .5-2.334-3.334-4.167-7.001-5.5-11-1.124-5.924.709-10.758 5.5-14.5a284.057 284.057 0 0 0 24-1.5c6.739-2.153 8.573-6.486 5.5-13-1.264-2.107-3.097-3.107-5.5-3a284.057 284.057 0 0 0-24-1.5c-7.935-8.532-7.935-17.032 0-25.5Z" style="opacity:1"/><path fill="#f9a52b" d="M91.5 328.5c-.033 9.307 4.633 14.641 14 16v1a88.941 88.941 0 0 0-.5 11c2.003 4.015 4.003 8.015 6 12 .667 1.333.667 2.667 0 4a12.14 12.14 0 0 0-4.5 3.5c-5.974 1.315-10.975 4.148-15 8.5-12.121-12.169-15.288-26.502-9.5-43 2.21-5.111 5.377-9.444 9.5-13Z" style="opacity:1"/><path fill="#fce352" d="M105.5 345.5v-1a45.733 45.733 0 0 1 6-10.5c16.932-4.574 24.599 1.926 23 19.5-.333 2.51-1.333 4.677-3 6.5-6.095 1.266-11.762.266-17-3a139.534 139.534 0 0 1-9-11.5Z" style="opacity:1"/><path fill="#96c8e2" d="M189.5 347.5c5.128-.388 10.128.112 15 1.5 5.755 6.137 5.088 11.47-2 16-5.118.888-10.118.555-15-1-5.775-6.299-5.108-11.799 2-16.5ZM252.5 348.5c2.403-.107 4.236.893 5.5 3 3.073 6.514 1.239 10.847-5.5 13-9.339.166-18.673 0-28-.5-1.5-.833-2.667-2-3.5-3.5-1.444-4.756-.277-8.589 3.5-11.5 9.327-.5 18.661-.666 28-.5Z" style="opacity:1"/><path fill="#b1d4ea" d="M276.5 347.5c9.006-.166 18.006 0 27 .5 5.445 2.11 7.278 5.944 5.5 11.5-1.167 2.5-3 4.333-5.5 5.5-9 .667-18 .667-27 0-7.97-5.913-7.97-11.746 0-17.5ZM326.5 347.5c9.006-.166 18.006 0 27 .5 5.595 2.354 7.428 6.521 5.5 12.5-1.109 2.315-2.943 3.815-5.5 4.5-9 .667-18 .667-27 0-7.944-5.869-7.944-11.703 0-17.5Z" style="opacity:1"/><path fill="#b2d5ea" d="M419.5 347.5a112.97 112.97 0 0 1 15 .5c4.333 1.161 6.333 3.995 6 8.5.333 4.505-1.667 7.339-6 8.5-5.781.903-11.447.57-17-1-5.701-6.289-5.035-11.789 2-16.5Z" style="opacity:1"/><path fill="#f9a72c" d="M155.5 373.5a31.867 31.867 0 0 1-7 11 126.309 126.309 0 0 0-20.5-12c-.667-1.333-.667-2.667 0-4a12.804 12.804 0 0 0 3-6c4.435 11.63 12.602 15.297 24.5 11Z" style="opacity:1"/><path fill="#e67bb6" d="M152.5 425.5c0 .667.333 1 1 1 16.035 18.401 18.202 38.401 6.5 60-1.307 1.692-2.807 3.025-4.5 4-2.319-.492-4.319-1.492-6-3 2.731-2.446 4.731-5.446 6-9 9.259-24.058 2.593-42.225-20-54.5-16.619-6.673-31.286-3.84-44 8.5-3.315 2.625-5.649 5.958-7 10-2-1.333-3.667-3-5-5-.009-1.808.491-3.475 1.5-5 5.911-7.741 13.411-13.408 22.5-17 18.161-5.349 34.495-2.016 49 10Z" style="opacity:1"/><path fill="#e25ca5" d="M155.5 478.5c-11.911 3.294-20.077-.706-24.5-12a1158.778 1158.778 0 0 0-3.5 9 127.633 127.633 0 0 1-27-19c1.467.792 2.8.792 4 0a15.418 15.418 0 0 0 1-7c3.09 6.258 7.757 11.092 14 14.5 3.589.207 7.089.707 10.5 1.5 2.61-1.824 4.11-4.324 4.5-7.5a138.112 138.112 0 0 1-1.5-14.5c-6.31-7.311-13.81-8.811-22.5-4.5a73.75 73.75 0 0 1-5 9.5c-9.987-.654-14.653-5.988-14-16 12.714-12.34 27.381-15.173 44-8.5 22.593 12.275 29.259 30.442 20 54.5Z" style="opacity:1"/><path fill="#b0d3e9" d="M153.5 426.5c25.002-.167 50.002 0 75 .5-8 8-8 16 0 24 8.177.171 16.177.671 24 1.5-9.339-.166-18.673 0-28 .5-4.953 4.643-5.287 9.643-1 15 1.525 1.009 3.192 1.509 5 1.5-7.913 8.634-7.913 17.301 0 26h-61c-4.297-1.155-8.297-2.821-12-5 1.693-.975 3.193-2.308 4.5-4 11.702-21.599 9.535-41.599-6.5-60Z" style="opacity:1"/><path fill="#cee3f3" d="M152.5 425.5c70.334-.167 140.667 0 211 .5 22.626 6.425 32.293 21.258 29 44.5-15.329 10.165-31.663 18.499-49 25h-115c-7.913-8.699-7.913-17.366 0-26 9.108.443 18.108-.057 27-1.5 6.088-6.725 5.088-11.891-3-15.5a284.057 284.057 0 0 0-24-1.5c-8-8-8-16 0-24-24.998-.5-49.998-.667-75-.5-.667 0-1-.333-1-1Z" style="opacity:1"/><path fill="#dd4798" d="M91.5 432.5c-.653 10.012 4.013 15.346 14 16v1a15.418 15.418 0 0 1-1 7c-1.2.792-2.533.792-4 0a160.374 160.374 0 0 1-16-14c1.351-4.042 3.685-7.375 7-10Z" style="opacity:1"/><path fill="#e678b4" d="M105.5 449.5v-1a73.75 73.75 0 0 0 5-9.5c8.69-4.311 16.19-2.811 22.5 4.5.246 4.872.746 9.705 1.5 14.5-.39 3.176-1.89 5.676-4.5 7.5a62.065 62.065 0 0 0-10.5-1.5c-6.243-3.408-10.91-8.242-14-14.5Z" style="opacity:1"/><path fill="#96c8e2" d="M188.5 452.5c5.79-.404 11.456.096 17 1.5 3.961 4.536 3.961 9.036 0 13.5-7.113 3.001-13.947 2.668-20.5-1-2.733-5.778-1.566-10.444 3.5-14ZM252.5 452.5c8.088 3.609 9.088 8.775 3 15.5a128.977 128.977 0 0 1-27 1.5c-1.808.009-3.475-.491-5-1.5-4.287-5.357-3.953-10.357 1-15 9.327-.5 18.661-.666 28-.5Z" style="opacity:1"/><path fill="#b0d4ea" d="M275.5 452.5c9.672-.166 19.339 0 29 .5 5.327 3.436 6.327 7.936 3 13.5a12.403 12.403 0 0 1-4 2.5c-9.333.667-18.667.667-28 0-6.657-5.673-6.657-11.173 0-16.5ZM325.5 452.5c10.006-.166 20.006 0 30 .5 4.953 4.643 5.287 9.643 1 15a119.816 119.816 0 0 1-30 1c-7.563-5.173-7.896-10.673-1-16.5Z" style="opacity:1"/><path fill="#de4598" d="M155.5 478.5c-1.269 3.554-3.269 6.554-6 9-7.982-2.988-15.315-6.988-22-12 1.128-2.938 2.295-5.938 3.5-9 4.423 11.294 12.589 15.294 24.5 12Z" style="opacity:1"/><path fill="#eaf0f7" d="M167.5 495.5h176c-21.312 8.261-43.312 13.595-66 16h-44a265.182 265.182 0 0 1-66-16Z" style="opacity:.97"/></svg>