<?xml version="1.0" encoding="UTF-8"?>
<!DOCTYPE svg PUBLIC "-//W3C//DTD SVG 1.1//EN" "http://www.w3.org/Graphics/SVG/1.1/DTD/svg11.dtd">
<svg xmlns="http://www.w3.org/2000/svg" version="1.1" width="512px" height="512px" style="shape-rendering:geometricPrecision; text-rendering:geometricPrecision; image-rendering:optimizeQuality; fill-rule:evenodd; clip-rule:evenodd" xmlns:xlink="http://www.w3.org/1999/xlink">
<g><path style="opacity:0.996" fill="#4f60fb" d="M 232.5,-0.5 C 247.833,-0.5 263.167,-0.5 278.5,-0.5C 368.144,10.3879 435.644,54.7213 481,132.5C 497.695,163.971 507.861,197.304 511.5,232.5C 511.5,247.833 511.5,263.167 511.5,278.5C 510.833,281.5 510.167,284.5 509.5,287.5C 509.662,285.473 509.495,283.473 509,281.5C 466.299,238.632 423.465,195.965 380.5,153.5C 376.86,149.194 372.86,145.194 368.5,141.5C 351.514,124.318 330.847,114.484 306.5,112C 263.755,109.456 230.589,125.956 207,161.5C 187.877,197.001 187.71,232.668 206.5,268.5C 176.202,299.299 145.702,329.965 115,360.5C 110.447,368.79 110.447,377.124 115,385.5C 116.371,387.041 117.871,388.375 119.5,389.5C 121.833,392.5 124.5,395.167 127.5,397.5C 163.694,435.196 200.527,472.529 238,509.5C 238.464,510.094 238.631,510.761 238.5,511.5C 236.5,511.5 234.5,511.5 232.5,511.5C 142.856,500.612 75.3562,456.279 30,378.5C 13.3053,347.029 3.1386,313.696 -0.5,278.5C -0.5,263.167 -0.5,247.833 -0.5,232.5C 10.3875,142.857 54.7208,75.3573 132.5,30C 163.971,13.3053 197.304,3.1386 232.5,-0.5 Z"/></g>
<g><path style="opacity:1" fill="#273b7a" d="M 368.5,141.5 C 362.167,147.167 356.167,153.167 350.5,159.5C 350.167,159.5 349.833,159.5 349.5,159.5C 337.695,147.597 323.361,140.43 306.5,138C 268.104,135.109 240.604,150.942 224,185.5C 214.023,214.031 218.023,240.365 236,264.5C 237.371,266.041 238.871,267.375 240.5,268.5C 240.5,268.833 240.5,269.167 240.5,269.5C 234.202,275.297 228.035,281.297 222,287.5C 216.212,281.558 211.046,275.225 206.5,268.5C 187.71,232.668 187.877,197.001 207,161.5C 230.589,125.956 263.755,109.456 306.5,112C 330.847,114.484 351.514,124.318 368.5,141.5 Z"/></g>
<g><path style="opacity:1" fill="#70e1ee" d="M 349.5,159.5 C 313.5,196.167 277.167,232.5 240.5,268.5C 238.871,267.375 237.371,266.041 236,264.5C 218.023,240.365 214.023,214.031 224,185.5C 240.604,150.942 268.104,135.109 306.5,138C 323.361,140.43 337.695,147.597 349.5,159.5 Z"/></g>
<g><path style="opacity:1" fill="#121149" d="M 368.5,141.5 C 372.86,145.194 376.86,149.194 380.5,153.5C 402.257,187.053 405.424,222.386 390,259.5C 365.187,304.824 327.02,323.99 275.5,317C 263.808,314.48 252.808,310.313 242.5,304.5C 236.445,300.625 230.778,296.125 225.5,291C 223.945,289.711 222.279,289.044 220.5,289C 186.965,322.701 153.299,356.201 119.5,389.5C 117.871,388.375 116.371,387.041 115,385.5C 110.447,377.124 110.447,368.79 115,360.5C 145.702,329.965 176.202,299.299 206.5,268.5C 211.046,275.225 216.212,281.558 222,287.5C 228.035,281.297 234.202,275.297 240.5,269.5C 265.162,292.533 293.495,298.366 325.5,287C 360.661,269.857 376.494,241.69 373,202.5C 370.196,185.552 362.696,171.219 350.5,159.5C 356.167,153.167 362.167,147.167 368.5,141.5 Z"/></g>
<g><path style="opacity:1" fill="#3845b8" d="M 380.5,153.5 C 423.465,195.965 466.299,238.632 509,281.5C 509.495,283.473 509.662,285.473 509.5,287.5C 497.959,367.825 458.293,429.991 390.5,474C 355.868,494.822 318.535,507.322 278.5,511.5C 265.167,511.5 251.833,511.5 238.5,511.5C 238.631,510.761 238.464,510.094 238,509.5C 200.527,472.529 163.694,435.196 127.5,397.5C 135.363,400.484 143.03,399.984 150.5,396C 181.035,365.298 211.701,334.798 242.5,304.5C 252.808,310.313 263.808,314.48 275.5,317C 327.02,323.99 365.187,304.824 390,259.5C 405.424,222.386 402.257,187.053 380.5,153.5 Z"/></g>
<g><path style="opacity:1" fill="#38c5d8" d="M 349.5,159.5 C 349.833,159.5 350.167,159.5 350.5,159.5C 362.696,171.219 370.196,185.552 373,202.5C 376.494,241.69 360.661,269.857 325.5,287C 293.495,298.366 265.162,292.533 240.5,269.5C 240.5,269.167 240.5,268.833 240.5,268.5C 277.167,232.5 313.5,196.167 349.5,159.5 Z"/></g>
<g><path style="opacity:1" fill="#0a0a33" d="M 242.5,304.5 C 211.701,334.798 181.035,365.298 150.5,396C 143.03,399.984 135.363,400.484 127.5,397.5C 124.5,395.167 121.833,392.5 119.5,389.5C 153.299,356.201 186.965,322.701 220.5,289C 222.279,289.044 223.945,289.711 225.5,291C 230.778,296.125 236.445,300.625 242.5,304.5 Z"/></g>
</svg>
